<mxfile host="app.diagrams.net" modified="2023-12-22T13:06:11.504Z" agent="Mozilla/5.0 (Windows NT 10.0; Win64; x64) AppleWebKit/537.36 (KHTML, like Gecko) Chrome/120.0.0.0 Safari/537.36" etag="OFz41KNgF4h3g-s3Jiuy" version="22.1.11" type="google">
  <diagram name="Página-1" id="-3iz1zzw_omKxahGkpeU">
    <mxGraphModel grid="1" page="1" gridSize="10" guides="1" tooltips="1" connect="1" arrows="1" fold="1" pageScale="1" pageWidth="827" pageHeight="1169" math="0" shadow="0">
      <root>
        <mxCell id="0" />
        <mxCell id="1" parent="0" />
        <mxCell id="HRrUGBto_hFa4NtE4Hd0-5" value="CtrlDomini" style="swimlane;fontStyle=0;align=center;verticalAlign=top;childLayout=stackLayout;horizontal=1;startSize=26;horizontalStack=0;resizeParent=1;resizeLast=0;collapsible=1;marginBottom=0;rounded=0;shadow=0;strokeWidth=1;" vertex="1" parent="1">
          <mxGeometry x="320" y="-1660" width="160" height="50" as="geometry">
            <mxRectangle x="230" y="140" width="160" height="26" as="alternateBounds" />
          </mxGeometry>
        </mxCell>
        <mxCell id="HRrUGBto_hFa4NtE4Hd0-13" value="CtrlPresentació" style="swimlane;fontStyle=0;align=center;verticalAlign=top;childLayout=stackLayout;horizontal=1;startSize=26;horizontalStack=0;resizeParent=1;resizeLast=0;collapsible=1;marginBottom=0;rounded=0;shadow=0;strokeWidth=1;" vertex="1" parent="1">
          <mxGeometry x="160" y="-1430" width="480" height="436" as="geometry">
            <mxRectangle x="550" y="140" width="160" height="26" as="alternateBounds" />
          </mxGeometry>
        </mxCell>
        <mxCell id="HRrUGBto_hFa4NtE4Hd0-16" value="-ControladorDomini: CtrlDomini.getInstance()" style="text;align=left;verticalAlign=top;spacingLeft=4;spacingRight=4;overflow=hidden;rotatable=0;points=[[0,0.5],[1,0.5]];portConstraint=eastwest;rounded=0;shadow=0;html=0;" vertex="1" parent="HRrUGBto_hFa4NtE4Hd0-13">
          <mxGeometry y="26" width="480" height="26" as="geometry" />
        </mxCell>
        <mxCell id="HRrUGBto_hFa4NtE4Hd0-17" value="" style="line;html=1;strokeWidth=1;align=left;verticalAlign=middle;spacingTop=-1;spacingLeft=3;spacingRight=3;rotatable=0;labelPosition=right;points=[];portConstraint=eastwest;" vertex="1" parent="HRrUGBto_hFa4NtE4Hd0-13">
          <mxGeometry y="52" width="480" height="8" as="geometry" />
        </mxCell>
        <mxCell id="HRrUGBto_hFa4NtE4Hd0-26" value="+exec()" style="text;align=left;verticalAlign=top;spacingLeft=4;spacingRight=4;overflow=hidden;rotatable=0;points=[[0,0.5],[1,0.5]];portConstraint=eastwest;" vertex="1" parent="HRrUGBto_hFa4NtE4Hd0-13">
          <mxGeometry y="60" width="480" height="26" as="geometry" />
        </mxCell>
        <mxCell id="-xPOQovMY1ZQkz-fL_RX-1" value="+singupPerfil(String user, String password, String ma)" style="text;align=left;verticalAlign=top;spacingLeft=4;spacingRight=4;overflow=hidden;rotatable=0;points=[[0,0.5],[1,0.5]];portConstraint=eastwest;" vertex="1" parent="HRrUGBto_hFa4NtE4Hd0-13">
          <mxGeometry y="86" width="480" height="26" as="geometry" />
        </mxCell>
        <mxCell id="iM2PQF0JZyKBjhb7VWdX-27" value="+logginPerfil(String user, String password)" style="text;align=left;verticalAlign=top;spacingLeft=4;spacingRight=4;overflow=hidden;rotatable=0;points=[[0,0.5],[1,0.5]];portConstraint=eastwest;" vertex="1" parent="HRrUGBto_hFa4NtE4Hd0-13">
          <mxGeometry y="112" width="480" height="26" as="geometry" />
        </mxCell>
        <mxCell id="iM2PQF0JZyKBjhb7VWdX-28" value="+modificarPerfil(String user, String password, String ma)" style="text;align=left;verticalAlign=top;spacingLeft=4;spacingRight=4;overflow=hidden;rotatable=0;points=[[0,0.5],[1,0.5]];portConstraint=eastwest;" vertex="1" parent="HRrUGBto_hFa4NtE4Hd0-13">
          <mxGeometry y="138" width="480" height="26" as="geometry" />
        </mxCell>
        <mxCell id="iM2PQF0JZyKBjhb7VWdX-29" value="+eliminarPerfil(String user)" style="text;align=left;verticalAlign=top;spacingLeft=4;spacingRight=4;overflow=hidden;rotatable=0;points=[[0,0.5],[1,0.5]];portConstraint=eastwest;" vertex="1" parent="HRrUGBto_hFa4NtE4Hd0-13">
          <mxGeometry y="164" width="480" height="26" as="geometry" />
        </mxCell>
        <mxCell id="iM2PQF0JZyKBjhb7VWdX-30" value="+tancarSessio()" style="text;align=left;verticalAlign=top;spacingLeft=4;spacingRight=4;overflow=hidden;rotatable=0;points=[[0,0.5],[1,0.5]];portConstraint=eastwest;" vertex="1" parent="HRrUGBto_hFa4NtE4Hd0-13">
          <mxGeometry y="190" width="480" height="26" as="geometry" />
        </mxCell>
        <mxCell id="iM2PQF0JZyKBjhb7VWdX-36" value="+ crearTeclat(userrname:String, nomTeclat:String, ma:Perfil.ma, pulgar_x:int, pulgar_y:int, &#xa;altura_inicial:int, amplada_inicial:int, idioma:String, palabrasF:String, text:String)" style="text;align=left;verticalAlign=middle;spacingLeft=4;spacingRight=4;overflow=hidden;rotatable=0;points=[[0,0.5],[1,0.5]];portConstraint=eastwest;spacingTop=0;" vertex="1" parent="HRrUGBto_hFa4NtE4Hd0-13">
          <mxGeometry y="216" width="480" height="38" as="geometry" />
        </mxCell>
        <mxCell id="iM2PQF0JZyKBjhb7VWdX-37" value="+ modificarTeclat(username:String, nomTeclat:String, nova_altura:int, nova_amplada:int):" style="text;align=left;verticalAlign=top;spacingLeft=4;spacingRight=4;overflow=hidden;rotatable=0;points=[[0,0.5],[1,0.5]];portConstraint=eastwest;" vertex="1" parent="HRrUGBto_hFa4NtE4Hd0-13">
          <mxGeometry y="254" width="480" height="26" as="geometry" />
        </mxCell>
        <mxCell id="iM2PQF0JZyKBjhb7VWdX-38" value="+ eliminar_teclat(username:String, nomTeclat:String)" style="text;align=left;verticalAlign=top;spacingLeft=4;spacingRight=4;overflow=hidden;rotatable=0;points=[[0,0.5],[1,0.5]];portConstraint=eastwest;" vertex="1" parent="HRrUGBto_hFa4NtE4Hd0-13">
          <mxGeometry y="280" width="480" height="26" as="geometry" />
        </mxCell>
        <mxCell id="iM2PQF0JZyKBjhb7VWdX-39" value="+ getTeclat(username:String, nomTeclat:String)" style="text;align=left;verticalAlign=top;spacingLeft=4;spacingRight=4;overflow=hidden;rotatable=0;points=[[0,0.5],[1,0.5]];portConstraint=eastwest;" vertex="1" parent="HRrUGBto_hFa4NtE4Hd0-13">
          <mxGeometry y="306" width="480" height="26" as="geometry" />
        </mxCell>
        <mxCell id="iM2PQF0JZyKBjhb7VWdX-40" value="+ obtenirTeclatsUsuari(username: String)" style="text;align=left;verticalAlign=top;spacingLeft=4;spacingRight=4;overflow=hidden;rotatable=0;points=[[0,0.5],[1,0.5]];portConstraint=eastwest;" vertex="1" parent="HRrUGBto_hFa4NtE4Hd0-13">
          <mxGeometry y="332" width="480" height="26" as="geometry" />
        </mxCell>
        <mxCell id="iM2PQF0JZyKBjhb7VWdX-42" value="+ consultarUltimaDistribucio(username: String, nomTeclat: String): char[][]" style="text;align=left;verticalAlign=top;spacingLeft=4;spacingRight=4;overflow=hidden;rotatable=0;points=[[0,0.5],[1,0.5]];portConstraint=eastwest;" vertex="1" parent="HRrUGBto_hFa4NtE4Hd0-13">
          <mxGeometry y="358" width="480" height="26" as="geometry" />
        </mxCell>
        <mxCell id="iM2PQF0JZyKBjhb7VWdX-41" value="+ obtenirEstadistiquesUltimaDistribucio(username:String, nomTeclat:String)" style="text;align=left;verticalAlign=top;spacingLeft=4;spacingRight=4;overflow=hidden;rotatable=0;points=[[0,0.5],[1,0.5]];portConstraint=eastwest;" vertex="1" parent="HRrUGBto_hFa4NtE4Hd0-13">
          <mxGeometry y="384" width="480" height="26" as="geometry" />
        </mxCell>
        <mxCell id="iM2PQF0JZyKBjhb7VWdX-31" value="+exit()" style="text;align=left;verticalAlign=top;spacingLeft=4;spacingRight=4;overflow=hidden;rotatable=0;points=[[0,0.5],[1,0.5]];portConstraint=eastwest;" vertex="1" parent="HRrUGBto_hFa4NtE4Hd0-13">
          <mxGeometry y="410" width="480" height="26" as="geometry" />
        </mxCell>
        <mxCell id="HRrUGBto_hFa4NtE4Hd0-27" value="" style="endArrow=classic;html=1;rounded=0;exitX=0.5;exitY=0;exitDx=0;exitDy=0;entryX=0.5;entryY=1;entryDx=0;entryDy=0;" edge="1" parent="1" source="HRrUGBto_hFa4NtE4Hd0-13" target="HRrUGBto_hFa4NtE4Hd0-5">
          <mxGeometry width="50" height="50" relative="1" as="geometry">
            <mxPoint x="390" y="-560" as="sourcePoint" />
            <mxPoint x="320" y="-1130" as="targetPoint" />
          </mxGeometry>
        </mxCell>
        <mxCell id="RyAJfHfGsuVSciWuRiCh-5" value="" style="endArrow=classic;html=1;rounded=0;exitX=0.5;exitY=0;exitDx=0;exitDy=0;entryX=0.496;entryY=1.062;entryDx=0;entryDy=0;entryPerimeter=0;" edge="1" parent="1" source="ZMmmzLvAWm4nkoXWsk0o-1" target="iM2PQF0JZyKBjhb7VWdX-31">
          <mxGeometry width="50" height="50" relative="1" as="geometry">
            <mxPoint x="400" as="sourcePoint" />
            <mxPoint x="400" y="-1010" as="targetPoint" />
          </mxGeometry>
        </mxCell>
        <mxCell id="ZMmmzLvAWm4nkoXWsk0o-1" value="VistaPrincipal" style="swimlane;fontStyle=0;align=center;verticalAlign=top;childLayout=stackLayout;horizontal=1;startSize=26;horizontalStack=0;resizeParent=1;resizeLast=0;collapsible=1;marginBottom=0;rounded=0;shadow=0;strokeWidth=1;" vertex="1" parent="1">
          <mxGeometry x="230" y="-740" width="340" height="560" as="geometry">
            <mxRectangle x="550" y="140" width="160" height="26" as="alternateBounds" />
          </mxGeometry>
        </mxCell>
        <mxCell id="JQPYKzdjv86O0vMPILH9-1" value="-framePrincipal: Jframe" style="text;align=left;verticalAlign=top;spacingLeft=4;spacingRight=4;overflow=hidden;rotatable=0;points=[[0,0.5],[1,0.5]];portConstraint=eastwest;" vertex="1" parent="ZMmmzLvAWm4nkoXWsk0o-1">
          <mxGeometry y="26" width="340" height="26" as="geometry" />
        </mxCell>
        <mxCell id="ZMmmzLvAWm4nkoXWsk0o-69" value="-panelsign: JPanel" style="text;align=left;verticalAlign=top;spacingLeft=4;spacingRight=4;overflow=hidden;rotatable=0;points=[[0,0.5],[1,0.5]];portConstraint=eastwest;" vertex="1" parent="ZMmmzLvAWm4nkoXWsk0o-1">
          <mxGeometry y="52" width="340" height="26" as="geometry" />
        </mxCell>
        <mxCell id="ZMmmzLvAWm4nkoXWsk0o-3" value="-IniciarSesioPerfilBtn: JButton" style="text;align=left;verticalAlign=top;spacingLeft=4;spacingRight=4;overflow=hidden;rotatable=0;points=[[0,0.5],[1,0.5]];portConstraint=eastwest;" vertex="1" parent="ZMmmzLvAWm4nkoXWsk0o-1">
          <mxGeometry y="78" width="340" height="26" as="geometry" />
        </mxCell>
        <mxCell id="ZMmmzLvAWm4nkoXWsk0o-2" value="-registrarPerfilBtn: JButton" style="text;align=left;verticalAlign=top;spacingLeft=4;spacingRight=4;overflow=hidden;rotatable=0;points=[[0,0.5],[1,0.5]];portConstraint=eastwest;" vertex="1" parent="ZMmmzLvAWm4nkoXWsk0o-1">
          <mxGeometry y="104" width="340" height="26" as="geometry" />
        </mxCell>
        <mxCell id="ZMmmzLvAWm4nkoXWsk0o-10" value="-exitBtn: JButton " style="text;align=left;verticalAlign=top;spacingLeft=4;spacingRight=4;overflow=hidden;rotatable=0;points=[[0,0.5],[1,0.5]];portConstraint=eastwest;" vertex="1" parent="ZMmmzLvAWm4nkoXWsk0o-1">
          <mxGeometry y="130" width="340" height="26" as="geometry" />
        </mxCell>
        <mxCell id="ZMmmzLvAWm4nkoXWsk0o-57" value="-passwordLabel: JLabel" style="text;align=left;verticalAlign=top;spacingLeft=4;spacingRight=4;overflow=hidden;rotatable=0;points=[[0,0.5],[1,0.5]];portConstraint=eastwest;" vertex="1" parent="ZMmmzLvAWm4nkoXWsk0o-1">
          <mxGeometry y="156" width="340" height="26" as="geometry" />
        </mxCell>
        <mxCell id="ZMmmzLvAWm4nkoXWsk0o-56" value="-userLable: JLabel" style="text;align=left;verticalAlign=top;spacingLeft=4;spacingRight=4;overflow=hidden;rotatable=0;points=[[0,0.5],[1,0.5]];portConstraint=eastwest;" vertex="1" parent="ZMmmzLvAWm4nkoXWsk0o-1">
          <mxGeometry y="182" width="340" height="26" as="geometry" />
        </mxCell>
        <mxCell id="JQPYKzdjv86O0vMPILH9-2" value="-signLog: JLabel" style="text;align=left;verticalAlign=top;spacingLeft=4;spacingRight=4;overflow=hidden;rotatable=0;points=[[0,0.5],[1,0.5]];portConstraint=eastwest;" vertex="1" parent="ZMmmzLvAWm4nkoXWsk0o-1">
          <mxGeometry y="208" width="340" height="26" as="geometry" />
        </mxCell>
        <mxCell id="ZMmmzLvAWm4nkoXWsk0o-8" value="-user: JTextArea" style="text;align=left;verticalAlign=top;spacingLeft=4;spacingRight=4;overflow=hidden;rotatable=0;points=[[0,0.5],[1,0.5]];portConstraint=eastwest;" vertex="1" parent="ZMmmzLvAWm4nkoXWsk0o-1">
          <mxGeometry y="234" width="340" height="26" as="geometry" />
        </mxCell>
        <mxCell id="ZMmmzLvAWm4nkoXWsk0o-9" value="-password: JTextArea" style="text;align=left;verticalAlign=top;spacingLeft=4;spacingRight=4;overflow=hidden;rotatable=0;points=[[0,0.5],[1,0.5]];portConstraint=eastwest;" vertex="1" parent="ZMmmzLvAWm4nkoXWsk0o-1">
          <mxGeometry y="260" width="340" height="26" as="geometry" />
        </mxCell>
        <mxCell id="JQPYKzdjv86O0vMPILH9-3" value="-comboma: JComboBox" style="text;align=left;verticalAlign=top;spacingLeft=4;spacingRight=4;overflow=hidden;rotatable=0;points=[[0,0.5],[1,0.5]];portConstraint=eastwest;" vertex="1" parent="ZMmmzLvAWm4nkoXWsk0o-1">
          <mxGeometry y="286" width="340" height="26" as="geometry" />
        </mxCell>
        <mxCell id="JQPYKzdjv86O0vMPILH9-7" value="-registrat: Boolean" style="text;align=left;verticalAlign=top;spacingLeft=4;spacingRight=4;overflow=hidden;rotatable=0;points=[[0,0.5],[1,0.5]];portConstraint=eastwest;" vertex="1" parent="ZMmmzLvAWm4nkoXWsk0o-1">
          <mxGeometry y="312" width="340" height="26" as="geometry" />
        </mxCell>
        <mxCell id="JQPYKzdjv86O0vMPILH9-8" value="-ctrlpresenta: CtrlPresentacio" style="text;align=left;verticalAlign=top;spacingLeft=4;spacingRight=4;overflow=hidden;rotatable=0;points=[[0,0.5],[1,0.5]];portConstraint=eastwest;" vertex="1" parent="ZMmmzLvAWm4nkoXWsk0o-1">
          <mxGeometry y="338" width="340" height="26" as="geometry" />
        </mxCell>
        <mxCell id="ZMmmzLvAWm4nkoXWsk0o-11" value="" style="line;html=1;strokeWidth=1;align=left;verticalAlign=middle;spacingTop=-1;spacingLeft=3;spacingRight=3;rotatable=0;labelPosition=right;points=[];portConstraint=eastwest;" vertex="1" parent="ZMmmzLvAWm4nkoXWsk0o-1">
          <mxGeometry y="364" width="340" height="8" as="geometry" />
        </mxCell>
        <mxCell id="JQPYKzdjv86O0vMPILH9-13" value="-errorPopUp()" style="text;align=left;verticalAlign=top;spacingLeft=4;spacingRight=4;overflow=hidden;rotatable=0;points=[[0,0.5],[1,0.5]];portConstraint=eastwest;" vertex="1" parent="ZMmmzLvAWm4nkoXWsk0o-1">
          <mxGeometry y="372" width="340" height="26" as="geometry" />
        </mxCell>
        <mxCell id="JQPYKzdjv86O0vMPILH9-14" value="-crearBtn()" style="text;align=left;verticalAlign=top;spacingLeft=4;spacingRight=4;overflow=hidden;rotatable=0;points=[[0,0.5],[1,0.5]];portConstraint=eastwest;" vertex="1" parent="ZMmmzLvAWm4nkoXWsk0o-1">
          <mxGeometry y="398" width="340" height="26" as="geometry" />
        </mxCell>
        <mxCell id="JQPYKzdjv86O0vMPILH9-15" value="-crearLb()" style="text;align=left;verticalAlign=top;spacingLeft=4;spacingRight=4;overflow=hidden;rotatable=0;points=[[0,0.5],[1,0.5]];portConstraint=eastwest;" vertex="1" parent="ZMmmzLvAWm4nkoXWsk0o-1">
          <mxGeometry y="424" width="340" height="26" as="geometry" />
        </mxCell>
        <mxCell id="JQPYKzdjv86O0vMPILH9-17" value="-addToFrame()" style="text;align=left;verticalAlign=top;spacingLeft=4;spacingRight=4;overflow=hidden;rotatable=0;points=[[0,0.5],[1,0.5]];portConstraint=eastwest;" vertex="1" parent="ZMmmzLvAWm4nkoXWsk0o-1">
          <mxGeometry y="450" width="340" height="26" as="geometry" />
        </mxCell>
        <mxCell id="JQPYKzdjv86O0vMPILH9-16" value="-createTa()" style="text;align=left;verticalAlign=top;spacingLeft=4;spacingRight=4;overflow=hidden;rotatable=0;points=[[0,0.5],[1,0.5]];portConstraint=eastwest;" vertex="1" parent="ZMmmzLvAWm4nkoXWsk0o-1">
          <mxGeometry y="476" width="340" height="26" as="geometry" />
        </mxCell>
        <mxCell id="JQPYKzdjv86O0vMPILH9-19" value="-createCombo()" style="text;align=left;verticalAlign=top;spacingLeft=4;spacingRight=4;overflow=hidden;rotatable=0;points=[[0,0.5],[1,0.5]];portConstraint=eastwest;" vertex="1" parent="ZMmmzLvAWm4nkoXWsk0o-1">
          <mxGeometry y="502" width="340" height="26" as="geometry" />
        </mxCell>
        <mxCell id="JQPYKzdjv86O0vMPILH9-18" value="-panelSignup()" style="text;align=left;verticalAlign=top;spacingLeft=4;spacingRight=4;overflow=hidden;rotatable=0;points=[[0,0.5],[1,0.5]];portConstraint=eastwest;" vertex="1" parent="ZMmmzLvAWm4nkoXWsk0o-1">
          <mxGeometry y="528" width="340" height="26" as="geometry" />
        </mxCell>
        <mxCell id="ZMmmzLvAWm4nkoXWsk0o-21" value="VistaPerfil" style="swimlane;fontStyle=0;align=center;verticalAlign=top;childLayout=stackLayout;horizontal=1;startSize=26;horizontalStack=0;resizeParent=1;resizeLast=0;collapsible=1;marginBottom=0;rounded=0;shadow=0;strokeWidth=1;" vertex="1" parent="1">
          <mxGeometry x="230" y="-70" width="340" height="400" as="geometry">
            <mxRectangle x="550" y="140" width="160" height="26" as="alternateBounds" />
          </mxGeometry>
        </mxCell>
        <mxCell id="ZMmmzLvAWm4nkoXWsk0o-22" value="-modificarPerfilBtn: JButton" style="text;align=left;verticalAlign=top;spacingLeft=4;spacingRight=4;overflow=hidden;rotatable=0;points=[[0,0.5],[1,0.5]];portConstraint=eastwest;" vertex="1" parent="ZMmmzLvAWm4nkoXWsk0o-21">
          <mxGeometry y="26" width="340" height="26" as="geometry" />
        </mxCell>
        <mxCell id="ZMmmzLvAWm4nkoXWsk0o-23" value="-eliminarPerfilBtn: JButton" style="text;align=left;verticalAlign=top;spacingLeft=4;spacingRight=4;overflow=hidden;rotatable=0;points=[[0,0.5],[1,0.5]];portConstraint=eastwest;" vertex="1" parent="ZMmmzLvAWm4nkoXWsk0o-21">
          <mxGeometry y="52" width="340" height="26" as="geometry" />
        </mxCell>
        <mxCell id="ZMmmzLvAWm4nkoXWsk0o-37" value="-tancarSessioBtn: JButton" style="text;align=left;verticalAlign=top;spacingLeft=4;spacingRight=4;overflow=hidden;rotatable=0;points=[[0,0.5],[1,0.5]];portConstraint=eastwest;" vertex="1" parent="ZMmmzLvAWm4nkoXWsk0o-21">
          <mxGeometry y="78" width="340" height="26" as="geometry" />
        </mxCell>
        <mxCell id="ZMmmzLvAWm4nkoXWsk0o-26" value="-exitBtn: JButton " style="text;align=left;verticalAlign=top;spacingLeft=4;spacingRight=4;overflow=hidden;rotatable=0;points=[[0,0.5],[1,0.5]];portConstraint=eastwest;" vertex="1" parent="ZMmmzLvAWm4nkoXWsk0o-21">
          <mxGeometry y="104" width="340" height="26" as="geometry" />
        </mxCell>
        <mxCell id="ZMmmzLvAWm4nkoXWsk0o-24" value="-crearTeclatBtn: JButton" style="text;align=left;verticalAlign=top;spacingLeft=4;spacingRight=4;overflow=hidden;rotatable=0;points=[[0,0.5],[1,0.5]];portConstraint=eastwest;" vertex="1" parent="ZMmmzLvAWm4nkoXWsk0o-21">
          <mxGeometry y="130" width="340" height="26" as="geometry" />
        </mxCell>
        <mxCell id="ZMmmzLvAWm4nkoXWsk0o-25" value="-llistarTeclatsBtn: JButton" style="text;align=left;verticalAlign=top;spacingLeft=4;spacingRight=4;overflow=hidden;rotatable=0;points=[[0,0.5],[1,0.5]];portConstraint=eastwest;" vertex="1" parent="ZMmmzLvAWm4nkoXWsk0o-21">
          <mxGeometry y="156" width="340" height="26" as="geometry" />
        </mxCell>
        <mxCell id="ZMmmzLvAWm4nkoXWsk0o-38" value="-consultarEstadisticasBtn: JButton" style="text;align=left;verticalAlign=top;spacingLeft=4;spacingRight=4;overflow=hidden;rotatable=0;points=[[0,0.5],[1,0.5]];portConstraint=eastwest;" vertex="1" parent="ZMmmzLvAWm4nkoXWsk0o-21">
          <mxGeometry y="182" width="340" height="26" as="geometry" />
        </mxCell>
        <mxCell id="iM2PQF0JZyKBjhb7VWdX-2" value="-opcionsLabel: JLabel" style="text;align=left;verticalAlign=top;spacingLeft=4;spacingRight=4;overflow=hidden;rotatable=0;points=[[0,0.5],[1,0.5]];portConstraint=eastwest;" vertex="1" parent="ZMmmzLvAWm4nkoXWsk0o-21">
          <mxGeometry y="208" width="340" height="26" as="geometry" />
        </mxCell>
        <mxCell id="iM2PQF0JZyKBjhb7VWdX-4" value="-perfilLabel: JLabel" style="text;align=left;verticalAlign=top;spacingLeft=4;spacingRight=4;overflow=hidden;rotatable=0;points=[[0,0.5],[1,0.5]];portConstraint=eastwest;" vertex="1" parent="ZMmmzLvAWm4nkoXWsk0o-21">
          <mxGeometry y="234" width="340" height="26" as="geometry" />
        </mxCell>
        <mxCell id="iM2PQF0JZyKBjhb7VWdX-3" value="-teclatsLabel: JLabel" style="text;align=left;verticalAlign=top;spacingLeft=4;spacingRight=4;overflow=hidden;rotatable=0;points=[[0,0.5],[1,0.5]];portConstraint=eastwest;" vertex="1" parent="ZMmmzLvAWm4nkoXWsk0o-21">
          <mxGeometry y="260" width="340" height="26" as="geometry" />
        </mxCell>
        <mxCell id="iM2PQF0JZyKBjhb7VWdX-1" value="-ctrlpresenta: CtrlPresentacio" style="text;align=left;verticalAlign=top;spacingLeft=4;spacingRight=4;overflow=hidden;rotatable=0;points=[[0,0.5],[1,0.5]];portConstraint=eastwest;" vertex="1" parent="ZMmmzLvAWm4nkoXWsk0o-21">
          <mxGeometry y="286" width="340" height="26" as="geometry" />
        </mxCell>
        <mxCell id="ZMmmzLvAWm4nkoXWsk0o-27" value="" style="line;html=1;strokeWidth=1;align=left;verticalAlign=middle;spacingTop=-1;spacingLeft=3;spacingRight=3;rotatable=0;labelPosition=right;points=[];portConstraint=eastwest;" vertex="1" parent="ZMmmzLvAWm4nkoXWsk0o-21">
          <mxGeometry y="312" width="340" height="8" as="geometry" />
        </mxCell>
        <mxCell id="nyq2jkwlrBX0lktFuBmV-1" value="-crearBtn()" style="text;align=left;verticalAlign=top;spacingLeft=4;spacingRight=4;overflow=hidden;rotatable=0;points=[[0,0.5],[1,0.5]];portConstraint=eastwest;" vertex="1" parent="ZMmmzLvAWm4nkoXWsk0o-21">
          <mxGeometry y="320" width="340" height="26" as="geometry" />
        </mxCell>
        <mxCell id="nyq2jkwlrBX0lktFuBmV-3" value="-crearLb()" style="text;align=left;verticalAlign=top;spacingLeft=4;spacingRight=4;overflow=hidden;rotatable=0;points=[[0,0.5],[1,0.5]];portConstraint=eastwest;" vertex="1" parent="ZMmmzLvAWm4nkoXWsk0o-21">
          <mxGeometry y="346" width="340" height="26" as="geometry" />
        </mxCell>
        <mxCell id="nyq2jkwlrBX0lktFuBmV-2" value="-addToFrame()" style="text;align=left;verticalAlign=top;spacingLeft=4;spacingRight=4;overflow=hidden;rotatable=0;points=[[0,0.5],[1,0.5]];portConstraint=eastwest;" vertex="1" parent="ZMmmzLvAWm4nkoXWsk0o-21">
          <mxGeometry y="372" width="340" height="26" as="geometry" />
        </mxCell>
        <mxCell id="ZMmmzLvAWm4nkoXWsk0o-39" value="VistaCrearTeclat" style="swimlane;fontStyle=0;align=center;verticalAlign=top;childLayout=stackLayout;horizontal=1;startSize=26;horizontalStack=0;resizeParent=1;resizeLast=0;collapsible=1;marginBottom=0;rounded=0;shadow=0;strokeWidth=1;" vertex="1" parent="1">
          <mxGeometry x="230" y="480" width="340" height="736" as="geometry">
            <mxRectangle x="550" y="140" width="160" height="26" as="alternateBounds" />
          </mxGeometry>
        </mxCell>
        <mxCell id="wloA11NGQvYmp98MgJL9-9" value="-titolCrearTeclat: JLabel" style="text;align=left;verticalAlign=top;spacingLeft=4;spacingRight=4;overflow=hidden;rotatable=0;points=[[0,0.5],[1,0.5]];portConstraint=eastwest;" vertex="1" parent="ZMmmzLvAWm4nkoXWsk0o-39">
          <mxGeometry y="26" width="340" height="26" as="geometry" />
        </mxCell>
        <mxCell id="wloA11NGQvYmp98MgJL9-10" value="-nomTeclatL: JLabel" style="text;align=left;verticalAlign=top;spacingLeft=4;spacingRight=4;overflow=hidden;rotatable=0;points=[[0,0.5],[1,0.5]];portConstraint=eastwest;" vertex="1" parent="ZMmmzLvAWm4nkoXWsk0o-39">
          <mxGeometry y="52" width="340" height="26" as="geometry" />
        </mxCell>
        <mxCell id="wloA11NGQvYmp98MgJL9-25" value="-frameCrearTeclat: JFrame" style="text;align=left;verticalAlign=top;spacingLeft=4;spacingRight=4;overflow=hidden;rotatable=0;points=[[0,0.5],[1,0.5]];portConstraint=eastwest;" vertex="1" parent="ZMmmzLvAWm4nkoXWsk0o-39">
          <mxGeometry y="78" width="340" height="26" as="geometry" />
        </mxCell>
        <mxCell id="ZMmmzLvAWm4nkoXWsk0o-49" value="-nomTeclatTA: JTextArea&#xa;" style="text;align=left;verticalAlign=top;spacingLeft=4;spacingRight=4;overflow=hidden;rotatable=0;points=[[0,0.5],[1,0.5]];portConstraint=eastwest;" vertex="1" parent="ZMmmzLvAWm4nkoXWsk0o-39">
          <mxGeometry y="104" width="340" height="26" as="geometry" />
        </mxCell>
        <mxCell id="kTQ0dw51Hwf3_3DpzfUl-2" value="-inputCrear: JComboBox" style="text;align=left;verticalAlign=top;spacingLeft=4;spacingRight=4;overflow=hidden;rotatable=0;points=[[0,0.5],[1,0.5]];portConstraint=eastwest;" vertex="1" parent="ZMmmzLvAWm4nkoXWsk0o-39">
          <mxGeometry y="130" width="340" height="26" as="geometry" />
        </mxCell>
        <mxCell id="ZMmmzLvAWm4nkoXWsk0o-53" value="-panelPath: JPanel" style="text;align=left;verticalAlign=top;spacingLeft=4;spacingRight=4;overflow=hidden;rotatable=0;points=[[0,0.5],[1,0.5]];portConstraint=eastwest;" vertex="1" parent="ZMmmzLvAWm4nkoXWsk0o-39">
          <mxGeometry y="156" width="340" height="26" as="geometry" />
        </mxCell>
        <mxCell id="nD34lYg5nDV4JwbERLRS-1" value="-algoritmeLabel: JLabel" style="text;align=left;verticalAlign=top;spacingLeft=4;spacingRight=4;overflow=hidden;rotatable=0;points=[[0,0.5],[1,0.5]];portConstraint=eastwest;" vertex="1" parent="ZMmmzLvAWm4nkoXWsk0o-39">
          <mxGeometry y="182" width="340" height="26" as="geometry" />
        </mxCell>
        <mxCell id="nD34lYg5nDV4JwbERLRS-2" value="-algoritmeChoice: JComboBox" style="text;align=left;verticalAlign=top;spacingLeft=4;spacingRight=4;overflow=hidden;rotatable=0;points=[[0,0.5],[1,0.5]];portConstraint=eastwest;" vertex="1" parent="ZMmmzLvAWm4nkoXWsk0o-39">
          <mxGeometry y="208" width="340" height="26" as="geometry" />
        </mxCell>
        <mxCell id="ZMmmzLvAWm4nkoXWsk0o-60" value="-pathLabel: JLabel" style="text;align=left;verticalAlign=top;spacingLeft=4;spacingRight=4;overflow=hidden;rotatable=0;points=[[0,0.5],[1,0.5]];portConstraint=eastwest;" vertex="1" parent="ZMmmzLvAWm4nkoXWsk0o-39">
          <mxGeometry y="234" width="340" height="26" as="geometry" />
        </mxCell>
        <mxCell id="ZMmmzLvAWm4nkoXWsk0o-61" value="-pathText: JTextArea" style="text;align=left;verticalAlign=top;spacingLeft=4;spacingRight=4;overflow=hidden;rotatable=0;points=[[0,0.5],[1,0.5]];portConstraint=eastwest;" vertex="1" parent="ZMmmzLvAWm4nkoXWsk0o-39">
          <mxGeometry y="260" width="340" height="26" as="geometry" />
        </mxCell>
        <mxCell id="ZMmmzLvAWm4nkoXWsk0o-54" value="-panelSeleccionarIdioma: JPanel" style="text;align=left;verticalAlign=top;spacingLeft=4;spacingRight=4;overflow=hidden;rotatable=0;points=[[0,0.5],[1,0.5]];portConstraint=eastwest;" vertex="1" parent="ZMmmzLvAWm4nkoXWsk0o-39">
          <mxGeometry y="286" width="340" height="26" as="geometry" />
        </mxCell>
        <mxCell id="ZMmmzLvAWm4nkoXWsk0o-64" value="-idiomaLabel: JLabel" style="text;align=left;verticalAlign=top;spacingLeft=4;spacingRight=4;overflow=hidden;rotatable=0;points=[[0,0.5],[1,0.5]];portConstraint=eastwest;" vertex="1" parent="ZMmmzLvAWm4nkoXWsk0o-39">
          <mxGeometry y="312" width="340" height="26" as="geometry" />
        </mxCell>
        <mxCell id="ZMmmzLvAWm4nkoXWsk0o-65" value="-idiomaChoice: JComboBox" style="text;align=left;verticalAlign=top;spacingLeft=4;spacingRight=4;overflow=hidden;rotatable=0;points=[[0,0.5],[1,0.5]];portConstraint=eastwest;" vertex="1" parent="ZMmmzLvAWm4nkoXWsk0o-39">
          <mxGeometry y="338" width="340" height="26" as="geometry" />
        </mxCell>
        <mxCell id="ZMmmzLvAWm4nkoXWsk0o-55" value="-panelParaulesFreq: JPanel" style="text;align=left;verticalAlign=top;spacingLeft=4;spacingRight=4;overflow=hidden;rotatable=0;points=[[0,0.5],[1,0.5]];portConstraint=eastwest;" vertex="1" parent="ZMmmzLvAWm4nkoXWsk0o-39">
          <mxGeometry y="364" width="340" height="26" as="geometry" />
        </mxCell>
        <mxCell id="ZMmmzLvAWm4nkoXWsk0o-66" value="-paraulesFreqLabel: JLabel" style="text;align=left;verticalAlign=top;spacingLeft=4;spacingRight=4;overflow=hidden;rotatable=0;points=[[0,0.5],[1,0.5]];portConstraint=eastwest;" vertex="1" parent="ZMmmzLvAWm4nkoXWsk0o-39">
          <mxGeometry y="390" width="340" height="26" as="geometry" />
        </mxCell>
        <mxCell id="ZMmmzLvAWm4nkoXWsk0o-67" value="-paraulesFreqTextArea: JTextArea" style="text;align=left;verticalAlign=top;spacingLeft=4;spacingRight=4;overflow=hidden;rotatable=0;points=[[0,0.5],[1,0.5]];portConstraint=eastwest;" vertex="1" parent="ZMmmzLvAWm4nkoXWsk0o-39">
          <mxGeometry y="416" width="340" height="26" as="geometry" />
        </mxCell>
        <mxCell id="wloA11NGQvYmp98MgJL9-12" value="-posPolXL: JLabel" style="text;align=left;verticalAlign=top;spacingLeft=4;spacingRight=4;overflow=hidden;rotatable=0;points=[[0,0.5],[1,0.5]];portConstraint=eastwest;" vertex="1" parent="ZMmmzLvAWm4nkoXWsk0o-39">
          <mxGeometry y="442" width="340" height="26" as="geometry" />
        </mxCell>
        <mxCell id="wloA11NGQvYmp98MgJL9-15" value="-posPolYL: JLabel" style="text;align=left;verticalAlign=top;spacingLeft=4;spacingRight=4;overflow=hidden;rotatable=0;points=[[0,0.5],[1,0.5]];portConstraint=eastwest;" vertex="1" parent="ZMmmzLvAWm4nkoXWsk0o-39">
          <mxGeometry y="468" width="340" height="26" as="geometry" />
        </mxCell>
        <mxCell id="wloA11NGQvYmp98MgJL9-14" value="-posPolXTA: JTextArea" style="text;align=left;verticalAlign=top;spacingLeft=4;spacingRight=4;overflow=hidden;rotatable=0;points=[[0,0.5],[1,0.5]];portConstraint=eastwest;" vertex="1" parent="ZMmmzLvAWm4nkoXWsk0o-39">
          <mxGeometry y="494" width="340" height="26" as="geometry" />
        </mxCell>
        <mxCell id="wloA11NGQvYmp98MgJL9-13" value="-posPolYTA: JTextArea" style="text;align=left;verticalAlign=top;spacingLeft=4;spacingRight=4;overflow=hidden;rotatable=0;points=[[0,0.5],[1,0.5]];portConstraint=eastwest;" vertex="1" parent="ZMmmzLvAWm4nkoXWsk0o-39">
          <mxGeometry y="520" width="340" height="26" as="geometry" />
        </mxCell>
        <mxCell id="wloA11NGQvYmp98MgJL9-18" value="-ampladaTeclatL: JLabel" style="text;align=left;verticalAlign=top;spacingLeft=4;spacingRight=4;overflow=hidden;rotatable=0;points=[[0,0.5],[1,0.5]];portConstraint=eastwest;" vertex="1" parent="ZMmmzLvAWm4nkoXWsk0o-39">
          <mxGeometry y="546" width="340" height="26" as="geometry" />
        </mxCell>
        <mxCell id="wloA11NGQvYmp98MgJL9-21" value="-alturaTeclatL: JLabel" style="text;align=left;verticalAlign=top;spacingLeft=4;spacingRight=4;overflow=hidden;rotatable=0;points=[[0,0.5],[1,0.5]];portConstraint=eastwest;" vertex="1" parent="ZMmmzLvAWm4nkoXWsk0o-39">
          <mxGeometry y="572" width="340" height="26" as="geometry" />
        </mxCell>
        <mxCell id="wloA11NGQvYmp98MgJL9-20" value="-alturaTeclatTA: JTextArea" style="text;align=left;verticalAlign=top;spacingLeft=4;spacingRight=4;overflow=hidden;rotatable=0;points=[[0,0.5],[1,0.5]];portConstraint=eastwest;" vertex="1" parent="ZMmmzLvAWm4nkoXWsk0o-39">
          <mxGeometry y="598" width="340" height="26" as="geometry" />
        </mxCell>
        <mxCell id="wloA11NGQvYmp98MgJL9-22" value="-ampladaTeclatTA: JTextArea" style="text;align=left;verticalAlign=top;spacingLeft=4;spacingRight=4;overflow=hidden;rotatable=0;points=[[0,0.5],[1,0.5]];portConstraint=eastwest;" vertex="1" parent="ZMmmzLvAWm4nkoXWsk0o-39">
          <mxGeometry y="624" width="340" height="26" as="geometry" />
        </mxCell>
        <mxCell id="wloA11NGQvYmp98MgJL9-19" value="-crearBtn: JButton" style="text;align=left;verticalAlign=top;spacingLeft=4;spacingRight=4;overflow=hidden;rotatable=0;points=[[0,0.5],[1,0.5]];portConstraint=eastwest;" vertex="1" parent="ZMmmzLvAWm4nkoXWsk0o-39">
          <mxGeometry y="650" width="340" height="26" as="geometry" />
        </mxCell>
        <mxCell id="ZMmmzLvAWm4nkoXWsk0o-47" value="" style="line;html=1;strokeWidth=1;align=left;verticalAlign=middle;spacingTop=-1;spacingLeft=3;spacingRight=3;rotatable=0;labelPosition=right;points=[];portConstraint=eastwest;" vertex="1" parent="ZMmmzLvAWm4nkoXWsk0o-39">
          <mxGeometry y="676" width="340" height="8" as="geometry" />
        </mxCell>
        <mxCell id="uEyq6QCTVlD2i_6W16fJ-2" value="" style="endArrow=classic;html=1;rounded=0;startArrow=none;startFill=0;exitX=0.5;exitY=1;exitDx=0;exitDy=0;entryX=0.5;entryY=0;entryDx=0;entryDy=0;" edge="1" parent="1" source="ZMmmzLvAWm4nkoXWsk0o-1" target="ZMmmzLvAWm4nkoXWsk0o-21">
          <mxGeometry width="50" height="50" relative="1" as="geometry">
            <mxPoint x="400" y="380" as="sourcePoint" />
            <mxPoint x="350" y="-130" as="targetPoint" />
          </mxGeometry>
        </mxCell>
        <mxCell id="ZMmmzLvAWm4nkoXWsk0o-52" value="" style="endArrow=classic;html=1;rounded=0;entryX=0.5;entryY=0;entryDx=0;entryDy=0;exitX=0.5;exitY=1;exitDx=0;exitDy=0;exitPerimeter=0;" edge="1" parent="1" source="nyq2jkwlrBX0lktFuBmV-2" target="ZMmmzLvAWm4nkoXWsk0o-39">
          <mxGeometry width="50" height="50" relative="1" as="geometry">
            <mxPoint x="400" y="300" as="sourcePoint" />
            <mxPoint x="401" y="650" as="targetPoint" />
          </mxGeometry>
        </mxCell>
        <mxCell id="ZMmmzLvAWm4nkoXWsk0o-71" value="VistaLlistarTeclats" style="swimlane;fontStyle=0;align=center;verticalAlign=top;childLayout=stackLayout;horizontal=1;startSize=26;horizontalStack=0;resizeParent=1;resizeLast=0;collapsible=1;marginBottom=0;rounded=0;shadow=0;strokeWidth=1;" vertex="1" parent="1">
          <mxGeometry x="620" y="480" width="340" height="140" as="geometry">
            <mxRectangle x="550" y="140" width="160" height="26" as="alternateBounds" />
          </mxGeometry>
        </mxCell>
        <mxCell id="kCCSx975Rm7pyJ8gwvAI-4" value="-titolEstadistiques: JLabel" style="text;align=left;verticalAlign=top;spacingLeft=4;spacingRight=4;overflow=hidden;rotatable=0;points=[[0,0.5],[1,0.5]];portConstraint=eastwest;" vertex="1" parent="ZMmmzLvAWm4nkoXWsk0o-71">
          <mxGeometry y="26" width="340" height="26" as="geometry" />
        </mxCell>
        <mxCell id="ZMmmzLvAWm4nkoXWsk0o-82" value="-frameLlistarTeclats: JFrame" style="text;align=left;verticalAlign=top;spacingLeft=4;spacingRight=4;overflow=hidden;rotatable=0;points=[[0,0.5],[1,0.5]];portConstraint=eastwest;" vertex="1" parent="ZMmmzLvAWm4nkoXWsk0o-71">
          <mxGeometry y="52" width="340" height="26" as="geometry" />
        </mxCell>
        <mxCell id="vIx55VkLx0WVjqBHNlNB-12" value="-comboTeclats: JComboBox" style="text;align=left;verticalAlign=top;spacingLeft=4;spacingRight=4;overflow=hidden;rotatable=0;points=[[0,0.5],[1,0.5]];portConstraint=eastwest;" vertex="1" parent="ZMmmzLvAWm4nkoXWsk0o-71">
          <mxGeometry y="78" width="340" height="26" as="geometry" />
        </mxCell>
        <mxCell id="wloA11NGQvYmp98MgJL9-26" value="-consultarTeclatBtn: JButton" style="text;align=left;verticalAlign=top;spacingLeft=4;spacingRight=4;overflow=hidden;rotatable=0;points=[[0,0.5],[1,0.5]];portConstraint=eastwest;" vertex="1" parent="ZMmmzLvAWm4nkoXWsk0o-71">
          <mxGeometry y="104" width="340" height="26" as="geometry" />
        </mxCell>
        <mxCell id="ZMmmzLvAWm4nkoXWsk0o-86" value="" style="endArrow=none;html=1;rounded=0;" edge="1" parent="1">
          <mxGeometry width="50" height="50" relative="1" as="geometry">
            <mxPoint x="400" y="400" as="sourcePoint" />
            <mxPoint x="1560" y="400" as="targetPoint" />
          </mxGeometry>
        </mxCell>
        <mxCell id="ZMmmzLvAWm4nkoXWsk0o-90" value="" style="endArrow=classic;html=1;rounded=0;entryX=0.5;entryY=0;entryDx=0;entryDy=0;" edge="1" parent="1" target="ZMmmzLvAWm4nkoXWsk0o-71">
          <mxGeometry width="50" height="50" relative="1" as="geometry">
            <mxPoint x="790" y="400" as="sourcePoint" />
            <mxPoint x="810" y="740" as="targetPoint" />
          </mxGeometry>
        </mxCell>
        <mxCell id="ZMmmzLvAWm4nkoXWsk0o-91" value="VistaConsultarEstadistiques" style="swimlane;fontStyle=0;align=center;verticalAlign=top;childLayout=stackLayout;horizontal=1;startSize=26;horizontalStack=0;resizeParent=1;resizeLast=0;collapsible=1;marginBottom=0;rounded=0;shadow=0;strokeWidth=1;" vertex="1" parent="1">
          <mxGeometry x="990" y="480" width="340" height="290" as="geometry">
            <mxRectangle x="550" y="140" width="160" height="26" as="alternateBounds" />
          </mxGeometry>
        </mxCell>
        <mxCell id="vIx55VkLx0WVjqBHNlNB-3" value="-titolEstadistiques: JLabel" style="text;align=left;verticalAlign=top;spacingLeft=4;spacingRight=4;overflow=hidden;rotatable=0;points=[[0,0.5],[1,0.5]];portConstraint=eastwest;" vertex="1" parent="ZMmmzLvAWm4nkoXWsk0o-91">
          <mxGeometry y="26" width="340" height="26" as="geometry" />
        </mxCell>
        <mxCell id="vIx55VkLx0WVjqBHNlNB-10" value="-nomTeclat: JLabel" style="text;align=left;verticalAlign=top;spacingLeft=4;spacingRight=4;overflow=hidden;rotatable=0;points=[[0,0.5],[1,0.5]];portConstraint=eastwest;" vertex="1" parent="ZMmmzLvAWm4nkoXWsk0o-91">
          <mxGeometry y="52" width="340" height="26" as="geometry" />
        </mxCell>
        <mxCell id="ZMmmzLvAWm4nkoXWsk0o-93" value="-DMLletres: JLabel" style="text;align=left;verticalAlign=top;spacingLeft=4;spacingRight=4;overflow=hidden;rotatable=0;points=[[0,0.5],[1,0.5]];portConstraint=eastwest;" vertex="1" parent="ZMmmzLvAWm4nkoXWsk0o-91">
          <mxGeometry y="78" width="340" height="26" as="geometry" />
        </mxCell>
        <mxCell id="vIx55VkLx0WVjqBHNlNB-2" value="-DMParaules: JLabel" style="text;align=left;verticalAlign=top;spacingLeft=4;spacingRight=4;overflow=hidden;rotatable=0;points=[[0,0.5],[1,0.5]];portConstraint=eastwest;" vertex="1" parent="ZMmmzLvAWm4nkoXWsk0o-91">
          <mxGeometry y="104" width="340" height="26" as="geometry" />
        </mxCell>
        <mxCell id="vIx55VkLx0WVjqBHNlNB-4" value="-percLletresAdjacents: JLabel" style="text;align=left;verticalAlign=top;spacingLeft=4;spacingRight=4;overflow=hidden;rotatable=0;points=[[0,0.5],[1,0.5]];portConstraint=eastwest;" vertex="1" parent="ZMmmzLvAWm4nkoXWsk0o-91">
          <mxGeometry y="130" width="340" height="26" as="geometry" />
        </mxCell>
        <mxCell id="vIx55VkLx0WVjqBHNlNB-5" value="-teclatVisualitzar: JTextArea" style="text;align=left;verticalAlign=top;spacingLeft=4;spacingRight=4;overflow=hidden;rotatable=0;points=[[0,0.5],[1,0.5]];portConstraint=eastwest;" vertex="1" parent="ZMmmzLvAWm4nkoXWsk0o-91">
          <mxGeometry y="156" width="340" height="26" as="geometry" />
        </mxCell>
        <mxCell id="vIx55VkLx0WVjqBHNlNB-6" value="-frameConsultarEstadistiques: JFrame" style="text;align=left;verticalAlign=top;spacingLeft=4;spacingRight=4;overflow=hidden;rotatable=0;points=[[0,0.5],[1,0.5]];portConstraint=eastwest;" vertex="1" parent="ZMmmzLvAWm4nkoXWsk0o-91">
          <mxGeometry y="182" width="340" height="26" as="geometry" />
        </mxCell>
        <mxCell id="vIx55VkLx0WVjqBHNlNB-7" value="-panellEstadistiques: JPanel" style="text;align=left;verticalAlign=top;spacingLeft=4;spacingRight=4;overflow=hidden;rotatable=0;points=[[0,0.5],[1,0.5]];portConstraint=eastwest;" vertex="1" parent="ZMmmzLvAWm4nkoXWsk0o-91">
          <mxGeometry y="208" width="340" height="26" as="geometry" />
        </mxCell>
        <mxCell id="vIx55VkLx0WVjqBHNlNB-8" value="-panellSeleccionar: JPanel" style="text;align=left;verticalAlign=top;spacingLeft=4;spacingRight=4;overflow=hidden;rotatable=0;points=[[0,0.5],[1,0.5]];portConstraint=eastwest;" vertex="1" parent="ZMmmzLvAWm4nkoXWsk0o-91">
          <mxGeometry y="234" width="340" height="26" as="geometry" />
        </mxCell>
        <mxCell id="vIx55VkLx0WVjqBHNlNB-9" value="-selectBtn: JButton" style="text;align=left;verticalAlign=top;spacingLeft=4;spacingRight=4;overflow=hidden;rotatable=0;points=[[0,0.5],[1,0.5]];portConstraint=eastwest;" vertex="1" parent="ZMmmzLvAWm4nkoXWsk0o-91">
          <mxGeometry y="260" width="340" height="26" as="geometry" />
        </mxCell>
        <mxCell id="ZMmmzLvAWm4nkoXWsk0o-97" value="" style="endArrow=classic;html=1;rounded=0;entryX=0.5;entryY=0;entryDx=0;entryDy=0;" edge="1" parent="1" target="ZMmmzLvAWm4nkoXWsk0o-91">
          <mxGeometry width="50" height="50" relative="1" as="geometry">
            <mxPoint x="1160" y="400" as="sourcePoint" />
            <mxPoint x="1220" y="860" as="targetPoint" />
          </mxGeometry>
        </mxCell>
        <mxCell id="RncvyHrwt8xEFzvHFOoq-1" value="VistaModificarPerfil" style="swimlane;fontStyle=0;align=center;verticalAlign=top;childLayout=stackLayout;horizontal=1;startSize=26;horizontalStack=0;resizeParent=1;resizeLast=0;collapsible=1;marginBottom=0;rounded=0;shadow=0;strokeWidth=1;" vertex="1" parent="1">
          <mxGeometry x="1420" y="480" width="340" height="240" as="geometry">
            <mxRectangle x="550" y="140" width="160" height="26" as="alternateBounds" />
          </mxGeometry>
        </mxCell>
        <mxCell id="RncvyHrwt8xEFzvHFOoq-3" value="-modificar:JButon" style="text;align=left;verticalAlign=top;spacingLeft=4;spacingRight=4;overflow=hidden;rotatable=0;points=[[0,0.5],[1,0.5]];portConstraint=eastwest;" vertex="1" parent="RncvyHrwt8xEFzvHFOoq-1">
          <mxGeometry y="26" width="340" height="26" as="geometry" />
        </mxCell>
        <mxCell id="RncvyHrwt8xEFzvHFOoq-4" value="-ctlpresenta:CtrlPresentacio" style="text;align=left;verticalAlign=top;spacingLeft=4;spacingRight=4;overflow=hidden;rotatable=0;points=[[0,0.5],[1,0.5]];portConstraint=eastwest;" vertex="1" parent="RncvyHrwt8xEFzvHFOoq-1">
          <mxGeometry y="52" width="340" height="26" as="geometry" />
        </mxCell>
        <mxCell id="RncvyHrwt8xEFzvHFOoq-5" value="-frameModificarPerfil:JFrame" style="text;align=left;verticalAlign=top;spacingLeft=4;spacingRight=4;overflow=hidden;rotatable=0;points=[[0,0.5],[1,0.5]];portConstraint=eastwest;" vertex="1" parent="RncvyHrwt8xEFzvHFOoq-1">
          <mxGeometry y="78" width="340" height="26" as="geometry" />
        </mxCell>
        <mxCell id="JQPYKzdjv86O0vMPILH9-22" value="-atributModificar: JLabel" style="text;align=left;verticalAlign=top;spacingLeft=4;spacingRight=4;overflow=hidden;rotatable=0;points=[[0,0.5],[1,0.5]];portConstraint=eastwest;" vertex="1" parent="RncvyHrwt8xEFzvHFOoq-1">
          <mxGeometry y="104" width="340" height="26" as="geometry" />
        </mxCell>
        <mxCell id="JQPYKzdjv86O0vMPILH9-21" value="-novaDominant:JLabel" style="text;align=left;verticalAlign=top;spacingLeft=4;spacingRight=4;overflow=hidden;rotatable=0;points=[[0,0.5],[1,0.5]];portConstraint=eastwest;" vertex="1" parent="RncvyHrwt8xEFzvHFOoq-1">
          <mxGeometry y="130" width="340" height="26" as="geometry" />
        </mxCell>
        <mxCell id="JQPYKzdjv86O0vMPILH9-24" value="-novaContra:JLabel" style="text;align=left;verticalAlign=top;spacingLeft=4;spacingRight=4;overflow=hidden;rotatable=0;points=[[0,0.5],[1,0.5]];portConstraint=eastwest;" vertex="1" parent="RncvyHrwt8xEFzvHFOoq-1">
          <mxGeometry y="156" width="340" height="26" as="geometry" />
        </mxCell>
        <mxCell id="JQPYKzdjv86O0vMPILH9-23" value="-comboma:JComboBox" style="text;align=left;verticalAlign=top;spacingLeft=4;spacingRight=4;overflow=hidden;rotatable=0;points=[[0,0.5],[1,0.5]];portConstraint=eastwest;" vertex="1" parent="RncvyHrwt8xEFzvHFOoq-1">
          <mxGeometry y="182" width="340" height="26" as="geometry" />
        </mxCell>
        <mxCell id="JQPYKzdjv86O0vMPILH9-25" value="-novaContraTA:JTextArea" style="text;align=left;verticalAlign=top;spacingLeft=4;spacingRight=4;overflow=hidden;rotatable=0;points=[[0,0.5],[1,0.5]];portConstraint=eastwest;" vertex="1" parent="RncvyHrwt8xEFzvHFOoq-1">
          <mxGeometry y="208" width="340" height="26" as="geometry" />
        </mxCell>
        <mxCell id="RncvyHrwt8xEFzvHFOoq-15" value="" style="endArrow=classic;html=1;rounded=0;entryX=0.5;entryY=0;entryDx=0;entryDy=0;" edge="1" parent="1" target="RncvyHrwt8xEFzvHFOoq-1">
          <mxGeometry width="50" height="50" relative="1" as="geometry">
            <mxPoint x="1560" y="400" as="sourcePoint" />
            <mxPoint x="1920" y="460" as="targetPoint" />
            <Array as="points">
              <mxPoint x="1590" y="400" />
            </Array>
          </mxGeometry>
        </mxCell>
        <mxCell id="iM2PQF0JZyKBjhb7VWdX-5" value="VistaConsultarTeclat" style="swimlane;fontStyle=0;align=center;verticalAlign=top;childLayout=stackLayout;horizontal=1;startSize=26;horizontalStack=0;resizeParent=1;resizeLast=0;collapsible=1;marginBottom=0;rounded=0;shadow=0;strokeWidth=1;" vertex="1" parent="1">
          <mxGeometry x="620" y="680" width="340" height="156" as="geometry">
            <mxRectangle x="550" y="140" width="160" height="26" as="alternateBounds" />
          </mxGeometry>
        </mxCell>
        <mxCell id="iM2PQF0JZyKBjhb7VWdX-6" value="-titolConsultarTeclat: JLabel" style="text;align=left;verticalAlign=top;spacingLeft=4;spacingRight=4;overflow=hidden;rotatable=0;points=[[0,0.5],[1,0.5]];portConstraint=eastwest;" vertex="1" parent="iM2PQF0JZyKBjhb7VWdX-5">
          <mxGeometry y="26" width="340" height="26" as="geometry" />
        </mxCell>
        <mxCell id="wloA11NGQvYmp98MgJL9-23" value="-frameConsultarTeclat: JFrame" style="text;align=left;verticalAlign=top;spacingLeft=4;spacingRight=4;overflow=hidden;rotatable=0;points=[[0,0.5],[1,0.5]];portConstraint=eastwest;" vertex="1" parent="iM2PQF0JZyKBjhb7VWdX-5">
          <mxGeometry y="52" width="340" height="26" as="geometry" />
        </mxCell>
        <mxCell id="wloA11NGQvYmp98MgJL9-8" value="-teclat: JLabel" style="text;align=left;verticalAlign=top;spacingLeft=4;spacingRight=4;overflow=hidden;rotatable=0;points=[[0,0.5],[1,0.5]];portConstraint=eastwest;" vertex="1" parent="iM2PQF0JZyKBjhb7VWdX-5">
          <mxGeometry y="78" width="340" height="26" as="geometry" />
        </mxCell>
        <mxCell id="wloA11NGQvYmp98MgJL9-6" value="-eliminarTeclat: JButton" style="text;align=left;verticalAlign=top;spacingLeft=4;spacingRight=4;overflow=hidden;rotatable=0;points=[[0,0.5],[1,0.5]];portConstraint=eastwest;" vertex="1" parent="iM2PQF0JZyKBjhb7VWdX-5">
          <mxGeometry y="104" width="340" height="26" as="geometry" />
        </mxCell>
        <mxCell id="wloA11NGQvYmp98MgJL9-7" value="-modificarTeclat: JButton" style="text;align=left;verticalAlign=top;spacingLeft=4;spacingRight=4;overflow=hidden;rotatable=0;points=[[0,0.5],[1,0.5]];portConstraint=eastwest;" vertex="1" parent="iM2PQF0JZyKBjhb7VWdX-5">
          <mxGeometry y="130" width="340" height="26" as="geometry" />
        </mxCell>
        <mxCell id="iM2PQF0JZyKBjhb7VWdX-11" value="" style="endArrow=classic;html=1;rounded=0;entryX=0.5;entryY=0;entryDx=0;entryDy=0;exitX=0.5;exitY=1;exitDx=0;exitDy=0;" edge="1" parent="1" source="ZMmmzLvAWm4nkoXWsk0o-71" target="iM2PQF0JZyKBjhb7VWdX-5">
          <mxGeometry width="50" height="50" relative="1" as="geometry">
            <mxPoint x="810" y="410" as="sourcePoint" />
            <mxPoint x="810" y="487" as="targetPoint" />
          </mxGeometry>
        </mxCell>
        <mxCell id="iM2PQF0JZyKBjhb7VWdX-12" value="VistaModificarTeclat" style="swimlane;fontStyle=0;align=center;verticalAlign=top;childLayout=stackLayout;horizontal=1;startSize=26;horizontalStack=0;resizeParent=1;resizeLast=0;collapsible=1;marginBottom=0;rounded=0;shadow=0;strokeWidth=1;" vertex="1" parent="1">
          <mxGeometry x="620" y="890" width="340" height="286" as="geometry">
            <mxRectangle x="550" y="140" width="160" height="26" as="alternateBounds" />
          </mxGeometry>
        </mxCell>
        <mxCell id="kCCSx975Rm7pyJ8gwvAI-5" value="-titolModificar: JLabel" style="text;align=left;verticalAlign=top;spacingLeft=4;spacingRight=4;overflow=hidden;rotatable=0;points=[[0,0.5],[1,0.5]];portConstraint=eastwest;" vertex="1" parent="iM2PQF0JZyKBjhb7VWdX-12">
          <mxGeometry y="26" width="340" height="26" as="geometry" />
        </mxCell>
        <mxCell id="wloA11NGQvYmp98MgJL9-2" value="-novaColumnaL: JLabel" style="text;align=left;verticalAlign=top;spacingLeft=4;spacingRight=4;overflow=hidden;rotatable=0;points=[[0,0.5],[1,0.5]];portConstraint=eastwest;" vertex="1" parent="iM2PQF0JZyKBjhb7VWdX-12">
          <mxGeometry y="52" width="340" height="26" as="geometry" />
        </mxCell>
        <mxCell id="nD34lYg5nDV4JwbERLRS-5" value="-nouAlgoritmeL: JLabel" style="text;align=left;verticalAlign=top;spacingLeft=4;spacingRight=4;overflow=hidden;rotatable=0;points=[[0,0.5],[1,0.5]];portConstraint=eastwest;" vertex="1" parent="iM2PQF0JZyKBjhb7VWdX-12">
          <mxGeometry y="78" width="340" height="26" as="geometry" />
        </mxCell>
        <mxCell id="wloA11NGQvYmp98MgJL9-3" value="-novaFilaL: JLabel" style="text;align=left;verticalAlign=top;spacingLeft=4;spacingRight=4;overflow=hidden;rotatable=0;points=[[0,0.5],[1,0.5]];portConstraint=eastwest;" vertex="1" parent="iM2PQF0JZyKBjhb7VWdX-12">
          <mxGeometry y="104" width="340" height="26" as="geometry" />
        </mxCell>
        <mxCell id="nD34lYg5nDV4JwbERLRS-4" value="-novaColumnaL: JLabel" style="text;align=left;verticalAlign=top;spacingLeft=4;spacingRight=4;overflow=hidden;rotatable=0;points=[[0,0.5],[1,0.5]];portConstraint=eastwest;" vertex="1" parent="iM2PQF0JZyKBjhb7VWdX-12">
          <mxGeometry y="130" width="340" height="26" as="geometry" />
        </mxCell>
        <mxCell id="nD34lYg5nDV4JwbERLRS-3" value="-nouAlgoritme: JComboBox" style="text;align=left;verticalAlign=top;spacingLeft=4;spacingRight=4;overflow=hidden;rotatable=0;points=[[0,0.5],[1,0.5]];portConstraint=eastwest;" vertex="1" parent="iM2PQF0JZyKBjhb7VWdX-12">
          <mxGeometry y="156" width="340" height="26" as="geometry" />
        </mxCell>
        <mxCell id="wloA11NGQvYmp98MgJL9-24" value="-frameModificarTeclat: JFrame" style="text;align=left;verticalAlign=top;spacingLeft=4;spacingRight=4;overflow=hidden;rotatable=0;points=[[0,0.5],[1,0.5]];portConstraint=eastwest;" vertex="1" parent="iM2PQF0JZyKBjhb7VWdX-12">
          <mxGeometry y="182" width="340" height="26" as="geometry" />
        </mxCell>
        <mxCell id="wloA11NGQvYmp98MgJL9-4" value="-novaColumnaTF: JTextField" style="text;align=left;verticalAlign=top;spacingLeft=4;spacingRight=4;overflow=hidden;rotatable=0;points=[[0,0.5],[1,0.5]];portConstraint=eastwest;" vertex="1" parent="iM2PQF0JZyKBjhb7VWdX-12">
          <mxGeometry y="208" width="340" height="26" as="geometry" />
        </mxCell>
        <mxCell id="wloA11NGQvYmp98MgJL9-5" value="-novaFilaTF: JTextField" style="text;align=left;verticalAlign=top;spacingLeft=4;spacingRight=4;overflow=hidden;rotatable=0;points=[[0,0.5],[1,0.5]];portConstraint=eastwest;" vertex="1" parent="iM2PQF0JZyKBjhb7VWdX-12">
          <mxGeometry y="234" width="340" height="26" as="geometry" />
        </mxCell>
        <mxCell id="kCCSx975Rm7pyJ8gwvAI-1" value="-modificarTeclatBtn: JButton" style="text;align=left;verticalAlign=top;spacingLeft=4;spacingRight=4;overflow=hidden;rotatable=0;points=[[0,0.5],[1,0.5]];portConstraint=eastwest;" vertex="1" parent="iM2PQF0JZyKBjhb7VWdX-12">
          <mxGeometry y="260" width="340" height="26" as="geometry" />
        </mxCell>
        <mxCell id="iM2PQF0JZyKBjhb7VWdX-24" value="" style="endArrow=classic;html=1;rounded=0;entryX=0.5;entryY=0;entryDx=0;entryDy=0;exitX=0.5;exitY=1;exitDx=0;exitDy=0;" edge="1" parent="1" source="iM2PQF0JZyKBjhb7VWdX-5" target="iM2PQF0JZyKBjhb7VWdX-12">
          <mxGeometry width="50" height="50" relative="1" as="geometry">
            <mxPoint x="790" y="890" as="sourcePoint" />
            <mxPoint x="800" y="680" as="targetPoint" />
          </mxGeometry>
        </mxCell>
        <mxCell id="iM2PQF0JZyKBjhb7VWdX-43" value="1" style="text;html=1;align=center;verticalAlign=middle;resizable=0;points=[];autosize=1;strokeColor=none;fillColor=none;" vertex="1" parent="1">
          <mxGeometry x="410" y="-1610" width="30" height="30" as="geometry" />
        </mxCell>
        <mxCell id="iM2PQF0JZyKBjhb7VWdX-44" value="1" style="text;html=1;align=center;verticalAlign=middle;resizable=0;points=[];autosize=1;strokeColor=none;fillColor=none;" vertex="1" parent="1">
          <mxGeometry x="410" y="-1460" width="30" height="30" as="geometry" />
        </mxCell>
        <mxCell id="iM2PQF0JZyKBjhb7VWdX-45" value="1" style="text;html=1;align=center;verticalAlign=middle;resizable=0;points=[];autosize=1;strokeColor=none;fillColor=none;" vertex="1" parent="1">
          <mxGeometry x="399" y="-994" width="30" height="30" as="geometry" />
        </mxCell>
        <mxCell id="iM2PQF0JZyKBjhb7VWdX-46" value="1" style="text;html=1;align=center;verticalAlign=middle;resizable=0;points=[];autosize=1;strokeColor=none;fillColor=none;" vertex="1" parent="1">
          <mxGeometry x="399" y="-770" width="30" height="30" as="geometry" />
        </mxCell>
        <mxCell id="iM2PQF0JZyKBjhb7VWdX-47" value="1" style="text;html=1;align=center;verticalAlign=middle;resizable=0;points=[];autosize=1;strokeColor=none;fillColor=none;" vertex="1" parent="1">
          <mxGeometry x="399" y="-180" width="30" height="30" as="geometry" />
        </mxCell>
        <mxCell id="iM2PQF0JZyKBjhb7VWdX-48" value="1" style="text;html=1;align=center;verticalAlign=middle;resizable=0;points=[];autosize=1;strokeColor=none;fillColor=none;" vertex="1" parent="1">
          <mxGeometry x="399" y="-100" width="30" height="30" as="geometry" />
        </mxCell>
        <mxCell id="iM2PQF0JZyKBjhb7VWdX-49" value="1" style="text;html=1;align=center;verticalAlign=middle;resizable=0;points=[];autosize=1;strokeColor=none;fillColor=none;" vertex="1" parent="1">
          <mxGeometry x="399" y="330" width="30" height="30" as="geometry" />
        </mxCell>
        <mxCell id="iM2PQF0JZyKBjhb7VWdX-50" value="1" style="text;html=1;align=center;verticalAlign=middle;resizable=0;points=[];autosize=1;strokeColor=none;fillColor=none;" vertex="1" parent="1">
          <mxGeometry x="1170" y="450" width="30" height="30" as="geometry" />
        </mxCell>
        <mxCell id="iM2PQF0JZyKBjhb7VWdX-51" value="1" style="text;html=1;align=center;verticalAlign=middle;resizable=0;points=[];autosize=1;strokeColor=none;fillColor=none;" vertex="1" parent="1">
          <mxGeometry x="797" y="650" width="30" height="30" as="geometry" />
        </mxCell>
        <mxCell id="iM2PQF0JZyKBjhb7VWdX-52" value="1" style="text;html=1;align=center;verticalAlign=middle;resizable=0;points=[];autosize=1;strokeColor=none;fillColor=none;" vertex="1" parent="1">
          <mxGeometry x="797" y="450" width="30" height="30" as="geometry" />
        </mxCell>
        <mxCell id="iM2PQF0JZyKBjhb7VWdX-53" value="1" style="text;html=1;align=center;verticalAlign=middle;resizable=0;points=[];autosize=1;strokeColor=none;fillColor=none;" vertex="1" parent="1">
          <mxGeometry x="399" y="440" width="30" height="30" as="geometry" />
        </mxCell>
        <mxCell id="iM2PQF0JZyKBjhb7VWdX-54" value="1" style="text;html=1;align=center;verticalAlign=middle;resizable=0;points=[];autosize=1;strokeColor=none;fillColor=none;" vertex="1" parent="1">
          <mxGeometry x="1550" y="450" width="30" height="30" as="geometry" />
        </mxCell>
        <mxCell id="iM2PQF0JZyKBjhb7VWdX-55" value="1" style="text;html=1;align=center;verticalAlign=middle;resizable=0;points=[];autosize=1;strokeColor=none;fillColor=none;" vertex="1" parent="1">
          <mxGeometry x="797" y="860" width="30" height="30" as="geometry" />
        </mxCell>
      </root>
    </mxGraphModel>
  </diagram>
</mxfile>
